<svg width="200" height="260" viewBox="0 0 200 260" xmlns="http://www.w3.org/2000/svg">
  <!-- Bot Head -->
  <rect x="50" y="30" width="100" height="100" rx="20" ry="20" fill="#37474F" stroke="#222" stroke-width="5"/>

  <!-- Eyes (Futuristic Glow) -->
  <circle cx="75" cy="70" r="10" fill="#00E5FF" stroke="#003B46" stroke-width="3"/>
  <circle cx="125" cy="70" r="10" fill="#00E5FF" stroke="#003B46" stroke-width="3"/>

  <!-- Antennas -->
  <line x1="50" y1="10" x2="75" y2="30" stroke="#222" stroke-width="4"/>
  <circle cx="50" cy="10" r="6" fill="#00E5FF" stroke="#003B46" stroke-width="2"/>
  
  <line x1="150" y1="10" x2="125" y2="30" stroke="#222" stroke-width="4"/>
  <circle cx="150" cy="10" r="6" fill="#00E5FF" stroke="#003B46" stroke-width="2"/>

  <!-- Mouth (Digital Voice Grid) -->
  <rect x="80" y="110" width="40" height="10" fill="white" stroke="#003B46" stroke-width="2"/>
  <line x1="80" y1="112" x2="120" y2="112" stroke="#00E5FF" stroke-width="2"/>
  <line x1="80" y1="116" x2="120" y2="116" stroke="#00E5FF" stroke-width="2"/>
  <line x1="85" y1="114" x2="85" y2="118" stroke="#00E5FF" stroke-width="2"/>
  <line x1="115" y1="114" x2="115" y2="118" stroke="#00E5FF" stroke-width="2"/>

  <!-- Body -->
  <rect x="60" y="130" width="80" height="50" rx="10" ry="10" fill="#263238" stroke="#222" stroke-width="5"/>
  <circle cx="100" cy="155" r="10" fill="#00E5FF" stroke="#003B46" stroke-width="2"/>

  <!-- Arms (Cyborg Style) -->
  <line x1="50" y1="150" x2="20" y2="160" stroke="#003B46" stroke-width="6"/>
  <circle cx="20" cy="160" r="6" fill="#00E5FF" stroke="#003B46" stroke-width="2"/>
  
  <line x1="150" y1="150" x2="180" y2="160" stroke="#003B46" stroke-width="6"/>
  <circle cx="180" cy="160" r="6" fill="#00E5FF" stroke="#003B46" stroke-width="2"/>

  <!-- Legs -->
  <line x1="80" y1="180" x2="80" y2="220" stroke="#222" stroke-width="6"/>
  <circle cx="80" cy="225" r="10" fill="#00E5FF" stroke="#003B46" stroke-width="2"/>
  
  <line x1="120" y1="180" x2="120" y2="220" stroke="#222" stroke-width="6"/>
  <circle cx="120" cy="225" r="10" fill="#00E5FF" stroke="#003B46" stroke-width="2"/>

</svg>
